<svg width="47" height="47" viewBox="0 0 47 47" fill="none" xmlns="http://www.w3.org/2000/svg">
<g id="home-svgrepo-com 1">
<rect width="47" height="47" fill="white"/>
<path id="Vector" d="M39.1667 23.0104C38.8487 23.0118 38.5391 22.9086 38.2855 22.7167L23.5 11.6325L8.71462 22.7167C8.40299 22.9503 8.01129 23.0507 7.62567 22.9957C7.24004 22.9405 6.8921 22.7345 6.65837 22.4229C6.42467 22.1113 6.3243 21.7195 6.37939 21.3339C6.43448 20.9483 6.6405 20.6003 6.95212 20.3667L22.6188 8.61666C22.873 8.42597 23.1822 8.32291 23.5 8.32291C23.8179 8.32291 24.1271 8.42597 24.3813 8.61666L40.048 20.3667C40.3323 20.5975 40.5201 20.9265 40.5746 21.2888C40.6288 21.6511 40.5458 22.0207 40.3417 22.325C40.217 22.5267 40.0444 22.6947 39.8396 22.8142C39.6347 22.9336 39.4037 23.001 39.1667 23.0104Z" fill="black"/>
<path id="Vector_2" d="M35.25 38.6771H11.75C11.362 38.672 10.9914 38.5157 10.717 38.2413C10.4427 37.967 10.2863 37.5963 10.2812 37.2083V18.6042C10.2812 18.2146 10.436 17.841 10.7114 17.5656C10.9869 17.2902 11.3605 17.1354 11.75 17.1354C12.1395 17.1354 12.5131 17.2902 12.7886 17.5656C13.064 17.841 13.2187 18.2146 13.2187 18.6042V35.7396H33.7812V18.6042C33.7812 18.2146 33.936 17.841 34.2115 17.5656C34.4868 17.2902 34.8605 17.1354 35.25 17.1354C35.6395 17.1354 36.0132 17.2902 36.2885 17.5656C36.564 17.841 36.7187 18.2146 36.7187 18.6042V37.2083C36.7137 37.5963 36.5574 37.967 36.283 38.2413C36.0087 38.5157 35.6379 38.672 35.25 38.6771Z" fill="black"/>
<path id="Vector_3" d="M27.4167 38.6771C27.0288 38.672 26.658 38.5157 26.3837 38.2414C26.1093 37.967 25.953 37.5963 25.948 37.2083V24.9687H21.0521V37.2083C21.0521 37.5978 20.8974 37.9715 20.6219 38.2468C20.3465 38.5224 19.9729 38.6771 19.5834 38.6771C19.1938 38.6771 18.8203 38.5224 18.5448 38.2468C18.2694 37.9715 18.1146 37.5978 18.1146 37.2083V23.5C18.1197 23.1121 18.2761 22.7413 18.5504 22.467C18.8248 22.1926 19.1954 22.0363 19.5834 22.0312H27.4167C27.8047 22.0363 28.1754 22.1926 28.4497 22.467C28.7241 22.7413 28.8804 23.1121 28.8855 23.5V37.2083C28.8804 37.5963 28.7241 37.967 28.4497 38.2414C28.1754 38.5157 27.8047 38.672 27.4167 38.6771Z" fill="black"/>
</g>
</svg>
