<svg width="74" height="74" viewBox="0 0 74 74" fill="none" xmlns="http://www.w3.org/2000/svg">
<g id="melon-svgrepo-com 1">
<path id="Vector" d="M70.8781 33.7625C66.8313 16.9969 48.3313 6.24375 29.6 9.94375C10.8688 13.6438 -0.924993 30.2937 3.12188 47.175C7.16876 64.0562 25.6688 74.6937 44.4 70.9938C63.1313 67.2938 74.925 50.6438 70.8781 33.7625Z" fill="#F5F0AE"/>
<g id="Group">
<path id="Vector_2" d="M33.8781 9.59687C33.6468 9.48125 33.5312 9.48125 33.3 9.36562C32.0281 9.48125 30.8719 9.7125 29.6 9.94375C28.3281 10.175 27.1719 10.5219 26.0156 10.8687C25.9 10.9844 25.6687 11.1 25.5531 11.3312C27.0562 11.9094 28.675 12.6031 30.4093 13.4125C31.5656 12.025 32.8375 10.7531 33.8781 9.59687Z" fill="#D0D18B"/>
<path id="Vector_3" d="M27.0563 19.425L32.6063 22.5469L36.3063 17.575L30.7563 14.6844L27.0563 19.425Z" fill="#D0D18B"/>
<path id="Vector_4" d="M29.2531 29.8312L35.3812 33.6469L39.0812 27.8656L33.0687 24.2812L29.2531 29.8312Z" fill="#D0D18B"/>
<path id="Vector_5" d="M32.0281 41.5094L38.1563 45.4406L41.9719 39.5437L35.8438 35.4969L32.0281 41.5094Z" fill="#D0D18B"/>
<path id="Vector_6" d="M44.7469 51.1063L38.6188 47.2906L34.9188 53.0719L40.9313 56.7719L44.7469 51.1063Z" fill="#D0D18B"/>
<path id="Vector_7" d="M46.9437 61.6281L41.3937 58.3906L37.6937 63.3625L43.2437 66.2531L46.9437 61.6281Z" fill="#D0D18B"/>
<path id="Vector_8" d="M40.1219 71.3406C40.3531 71.4562 40.4688 71.4562 40.7 71.5719C41.9719 71.4562 43.2438 71.225 44.4 70.9937C45.5563 70.7625 46.8281 70.4156 48.1 70.0687C48.2156 69.9531 48.3313 69.8375 48.5625 69.7219C47.0594 69.1437 45.4406 68.45 43.7063 67.6406C42.4344 68.9125 41.2781 70.1844 40.1219 71.3406Z" fill="#D0D18B"/>
<path id="Vector_9" d="M38.85 16.3031L42.0875 12.025L36.6531 9.71249L33.3 13.5281L38.85 16.3031Z" fill="#D0D18B"/>
<path id="Vector_10" d="M35.8438 22.7781L41.8563 26.4781L45.2094 21.275L39.3125 17.8063L35.8438 22.7781Z" fill="#D0D18B"/>
<path id="Vector_11" d="M48.3313 32.1437L42.3188 28.3281L38.6188 33.9937L44.7469 37.925L48.3313 32.1437Z" fill="#D0D18B"/>
<path id="Vector_12" d="M51.2219 43.8219L45.2094 39.8906L41.5094 45.7875L47.5219 49.6031L51.2219 43.8219Z" fill="#D0D18B"/>
<path id="Vector_13" d="M53.4188 54.9219L47.8688 51.4531L44.1688 57.0031L49.7188 60.2406L53.4188 54.9219Z" fill="#D0D18B"/>
<path id="Vector_14" d="M49.95 61.7437L46.1344 66.3687L50.9906 68.5656L54.9219 64.4031L49.95 61.7437Z" fill="#D0D18B"/>
<path id="Vector_15" d="M44.9781 10.0594C43.3594 9.7125 41.7406 9.48125 40.1219 9.36562C41.5094 9.94375 42.7813 10.5219 44.1688 11.1C44.4 10.7531 44.7469 10.4062 44.9781 10.0594Z" fill="#D0D18B"/>
<path id="Vector_16" d="M41.5094 16.65L47.4063 20.0031L50.4125 15.4937L44.6313 12.3719L41.5094 16.65Z" fill="#D0D18B"/>
<path id="Vector_17" d="M44.6312 26.9406L50.5281 30.7562L53.7656 25.4375L47.8687 21.7375L44.6312 26.9406Z" fill="#D0D18B"/>
<path id="Vector_18" d="M51.1062 32.6062L47.5219 38.3875L53.4187 42.3187L56.7719 36.5375L51.1062 32.6062Z" fill="#D0D18B"/>
<path id="Vector_19" d="M59.2 47.8687L53.7656 44.1687L50.1813 49.95L55.6156 53.4187L59.2 47.8687Z" fill="#D0D18B"/>
<path id="Vector_20" d="M60.7031 58.1594L55.9625 55.1531L52.1469 60.3563L57.0031 63.1312L60.7031 58.1594Z" fill="#D0D18B"/>
<path id="Vector_21" d="M54.2281 67.525C55.6156 66.8313 57.0031 65.9063 58.275 65.0969C57.9281 64.8656 57.4656 64.6344 57.0031 64.5188C56.1938 65.5594 55.2688 66.6 54.2281 67.525Z" fill="#D0D18B"/>
<path id="Vector_22" d="M53.65 13.0656C51.6844 12.1406 49.7187 11.3312 47.6375 10.7531C47.5219 10.9844 47.2906 11.2156 47.175 11.4469C49.025 12.3719 50.9906 13.4125 52.8406 14.5687C52.9562 13.9906 53.3031 13.5281 53.65 13.0656Z" fill="#D0D18B"/>
<path id="Vector_23" d="M53.3031 15.9562L50.4125 20.4656L56.0781 24.2812L58.7375 19.5406L53.3031 15.9562Z" fill="#D0D18B"/>
<path id="Vector_24" d="M61.975 29.8312L56.6563 26.0156L53.65 31.2188L59.2 35.15L61.975 29.8312Z" fill="#D0D18B"/>
<path id="Vector_25" d="M59.6625 37L56.425 42.6656L61.6281 46.25L64.6344 40.7L59.6625 37Z" fill="#D0D18B"/>
<path id="Vector_26" d="M66.4844 51.3375L61.975 48.1L58.5062 53.65L63.1312 56.6562L66.4844 51.3375Z" fill="#D0D18B"/>
<path id="Vector_27" d="M59.6625 63.1312C59.8937 63.2469 60.125 63.3625 60.4719 63.5937C62.0906 62.2062 63.5937 60.8187 64.8656 59.2C64.4031 58.8531 63.9406 58.6219 63.3625 58.275C62.0906 59.8937 60.9344 61.5125 59.6625 63.1312Z" fill="#D0D18B"/>
<path id="Vector_28" d="M60.8187 17.8062C59.2 16.4187 57.4656 15.2625 55.6156 14.1062C55.3844 14.4531 55.2687 14.6844 55.0375 15.0312C56.8875 16.1875 58.6219 17.3437 60.3562 18.6156C60.5875 18.3844 60.7031 18.1531 60.8187 17.8062Z" fill="#D0D18B"/>
<path id="Vector_29" d="M63.7094 28.7906L65.7906 24.1656L60.9344 20.2344L58.5062 24.8594L63.7094 28.7906Z" fill="#D0D18B"/>
<path id="Vector_30" d="M68.5656 34.225L64.1719 30.4094L61.5125 35.6125L66.3688 39.4281L68.5656 34.225Z" fill="#D0D18B"/>
<path id="Vector_31" d="M63.825 46.5969L68.2188 49.8344L70.7625 44.5156L66.7156 41.1625L63.825 46.5969Z" fill="#D0D18B"/>
<path id="Vector_32" d="M65.2125 56.7719C65.5594 57.0031 65.7906 57.1187 66.1375 57.35C67.2938 55.7312 68.3344 53.8812 69.1438 52.0312C68.9125 51.8 68.6813 51.6844 68.3344 51.4531C67.4094 53.3031 66.3688 55.0375 65.2125 56.7719Z" fill="#D0D18B"/>
<path id="Vector_33" d="M70.4156 32.2594C69.7219 29.9469 68.6812 27.75 67.525 25.6687C67.0625 26.825 66.6 27.9812 66.0219 29.2531C67.525 30.525 68.9125 31.7969 70.1844 33.0687C70.3 32.8375 70.3 32.4906 70.4156 32.2594Z" fill="#D0D18B"/>
<path id="Vector_34" d="M71.225 35.3813L70.5312 34.6875C69.9531 36.3063 69.2594 37.925 68.5656 39.6594C69.6062 40.5844 70.6469 41.5094 71.5719 42.3187C71.8031 40.1219 71.6875 37.8094 71.225 35.3813Z" fill="#D0D18B"/>
<path id="Vector_35" d="M24.05 19.1937L27.75 14.5687L23.0094 12.3719L19.0781 16.5344L24.05 19.1937Z" fill="#D0D18B"/>
<path id="Vector_36" d="M20.5812 26.0156L26.1312 29.4844L29.8312 23.9344L24.2812 20.6969L20.5812 26.0156Z" fill="#D0D18B"/>
<path id="Vector_37" d="M22.7781 37.1156L28.7906 41.0469L32.4906 35.15L26.4781 31.3344L22.7781 37.1156Z" fill="#D0D18B"/>
<path id="Vector_38" d="M35.3813 46.9437L29.2531 42.8969L25.6688 48.6781L31.6813 52.6094L35.3813 46.9437Z" fill="#D0D18B"/>
<path id="Vector_39" d="M38.1563 58.0438L32.1438 54.4594L28.7906 59.6625L34.6875 63.1312L38.1563 58.0438Z" fill="#D0D18B"/>
<path id="Vector_40" d="M35.0344 64.6344L31.7969 68.7969L37.3469 71.225L40.7 67.4094L35.0344 64.6344Z" fill="#D0D18B"/>
<path id="Vector_41" d="M19.6562 13.4125C18.2687 14.1062 16.8812 14.9156 15.725 15.8406C16.0719 16.0719 16.5344 16.1875 16.8812 16.4187C17.8062 15.3781 18.7312 14.3375 19.6562 13.4125Z" fill="#D0D18B"/>
<path id="Vector_42" d="M13.2969 22.7781L18.0375 25.7844L21.8531 20.4656L16.9969 17.8063L13.2969 22.7781Z" fill="#D0D18B"/>
<path id="Vector_43" d="M14.8 33.0687L20.1187 36.7687L23.8187 30.9875L18.3844 27.4031L14.8 33.0687Z" fill="#D0D18B"/>
<path id="Vector_44" d="M22.8938 48.2156L26.4781 42.55L20.5813 38.6188L17.2281 44.2844L22.8938 48.2156Z" fill="#D0D18B"/>
<path id="Vector_45" d="M29.3687 53.9969L23.4719 50.0656L20.2344 55.3844L26.1313 59.2L29.3687 53.9969Z" fill="#D0D18B"/>
<path id="Vector_46" d="M32.4907 64.2875L26.5938 60.8187L23.5875 65.4437L29.3688 68.45L32.4907 64.2875Z" fill="#D0D18B"/>
<path id="Vector_47" d="M29.0219 70.8781C30.6406 71.225 32.375 71.4563 34.1094 71.5719C32.7219 70.9938 31.3343 70.4156 29.9468 69.7219C29.6 70.1844 29.2531 70.5313 29.0219 70.8781Z" fill="#D0D18B"/>
<path id="Vector_48" d="M14.3375 17.8062C14.1062 17.6906 13.875 17.575 13.6438 17.3438C12.025 18.7313 10.5219 20.1187 9.25 21.7375C9.7125 22.0844 10.175 22.3156 10.7531 22.6625C11.9094 21.0438 13.0656 19.425 14.3375 17.8062Z" fill="#D0D18B"/>
<path id="Vector_49" d="M7.51562 29.6L12.025 32.8375L15.4937 27.2875L10.8687 24.2812L7.51562 29.6Z" fill="#D0D18B"/>
<path id="Vector_50" d="M14.3375 43.9375L17.575 38.2719L12.3719 34.5719L9.3656 40.1219L14.3375 43.9375Z" fill="#D0D18B"/>
<path id="Vector_51" d="M20.35 49.7187L14.8 45.7875L12.025 50.9906L17.3438 54.9219L20.35 49.7187Z" fill="#D0D18B"/>
<path id="Vector_52" d="M20.6969 64.9812L23.5875 60.4719L17.8063 56.6562L15.2625 61.2812L20.6969 64.9812Z" fill="#D0D18B"/>
<path id="Vector_53" d="M20.35 67.8719C22.3156 68.7969 24.2812 69.6062 26.3625 70.1844C26.5937 69.9531 26.7093 69.7219 26.9406 69.4906C25.0906 68.5656 23.125 67.525 21.275 66.3687C20.9281 66.9469 20.6969 67.4094 20.35 67.8719Z" fill="#D0D18B"/>
<path id="Vector_54" d="M8.78751 24.1656C8.44064 23.9344 8.20939 23.8188 7.86251 23.5875C6.70626 25.2063 5.66564 27.0563 4.85626 28.9063C5.08751 29.1375 5.31876 29.2531 5.66564 29.4844C6.59064 27.6344 7.63126 25.9 8.78751 24.1656Z" fill="#D0D18B"/>
<path id="Vector_55" d="M10.175 34.3406L5.78124 30.9875L3.23749 36.4219L7.28436 39.775L10.175 34.3406Z" fill="#D0D18B"/>
<path id="Vector_56" d="M5.43439 46.5969L9.82814 50.4125L12.4875 45.2094L7.63126 41.5094L5.43439 46.5969Z" fill="#D0D18B"/>
<path id="Vector_57" d="M10.2906 52.1469L8.20935 56.7719L12.95 60.7031L15.4937 56.0781L10.2906 52.1469Z" fill="#D0D18B"/>
<path id="Vector_58" d="M13.0656 63.1312C14.6844 64.5187 16.4187 65.7906 18.2687 66.8312C18.5 66.4844 18.6156 66.2531 18.8469 65.9062C16.9969 64.75 15.2625 63.5937 13.5281 62.3219C13.4125 62.5531 13.2969 62.7844 13.0656 63.1312Z" fill="#D0D18B"/>
<path id="Vector_59" d="M2.42812 38.5031C2.3125 40.8156 2.42813 43.1281 2.775 45.5562L3.46875 46.25C4.04687 44.6312 4.74062 43.0125 5.43437 41.2781C4.27812 40.2375 3.35312 39.3125 2.42812 38.5031Z" fill="#D0D18B"/>
<path id="Vector_60" d="M3.58435 48.6781C4.2781 50.9906 5.31873 53.1875 6.47498 55.2687C6.93748 54.1125 7.39998 52.9562 7.9781 51.6844C6.47498 50.4125 5.08748 49.1406 3.8156 47.8687C3.69998 48.1 3.58435 48.3312 3.58435 48.6781Z" fill="#D0D18B"/>
</g>
<path id="Vector_61" d="M41.1625 13.6437H28.0969C28.7906 12.8344 31.2187 11.6781 35.2656 11.6781C38.85 11.6781 41.1625 12.6031 41.1625 13.6437Z" fill="#8CC63E"/>
<g id="Group_2">
<path id="Vector_62" d="M41.1625 13.6437C41.2781 14.8 38.2719 16.5344 34.5719 16.8812C30.8719 17.2281 27.75 15.9562 27.6344 14.9156C27.5188 13.7594 29.2531 11.4469 34.6875 13.1812C38.2719 14.3375 41.1625 12.6031 41.1625 13.6437Z" fill="#64892F"/>
<path id="Vector_63" d="M33.8782 14.4531C33.1844 10.4062 32.4907 9.25 31.6813 7.74687C31.45 7.28437 31.1032 6.70625 30.7563 6.0125L32.9532 4.85625L33.7625 6.475C34.6875 8.20937 35.4969 9.48125 36.1907 13.9906L33.8782 14.4531Z" fill="#64892F"/>
</g>
<g id="Group_3">
<path id="Vector_64" d="M30.7563 6.35938L33.3 6.59062C34.225 8.325 33.0688 10.0594 33.8782 14.5688C33.8782 14.4531 31.5657 7.8625 30.7563 6.35938Z" fill="#8CC63E"/>
<path id="Vector_65" d="M37 7.4C34.1094 7.63125 31.2188 7.05312 28.0969 6.35938C24.6281 5.55 20.2344 4.85625 15.8406 4.85625C13.9906 4.85625 13.875 2.3125 15.725 2.3125C21.3906 2.3125 24.975 3.00625 28.5594 3.81562C32.8375 4.74062 36.4219 5.66562 40.0063 4.04688L40.8156 6.35938C39.5438 7.05312 38.2719 7.28438 37 7.4Z" fill="#8CC63E"/>
</g>
<path id="Vector_66" d="M40.7827 6.52663C41.2033 6.37535 41.3516 5.71689 41.1139 5.05589C40.8762 4.3949 40.3425 3.98169 39.9218 4.13296C39.5012 4.28423 39.3529 4.9427 39.5906 5.60369C39.8283 6.26469 40.362 6.6779 40.7827 6.52663Z" fill="#CEFF80"/>
</g>
</svg>
