<svg width="47" height="47" viewBox="0 0 47 47" fill="none" xmlns="http://www.w3.org/2000/svg">
<g id="person-svgrepo-com 1">
<path id="Vector" d="M23.5 22.77C25.4639 22.77 27.3473 21.9899 28.7359 20.6012C30.1246 19.2126 30.9047 17.3292 30.9047 15.3653C30.9047 13.4015 30.1246 11.5181 28.7359 10.1294C27.3473 8.74077 25.4639 7.96063 23.5 7.96063C21.5362 7.96063 19.6527 8.74077 18.2641 10.1294C16.8754 11.5181 16.0953 13.4015 16.0953 15.3653C16.0953 17.3292 16.8754 19.2126 18.2641 20.6012C19.6527 21.9899 21.5362 22.77 23.5 22.77ZM23.5 26.0233C13.655 26.0233 7.34375 31.4562 7.34375 34.1014V39.0408H39.6562V34.1014C39.6562 30.9025 33.6814 26.0233 23.5 26.0233Z" fill="black"/>
</g>
</svg>
