<svg width="74" height="74" viewBox="0 0 74 74" fill="none" xmlns="http://www.w3.org/2000/svg">
<g id="strawberry-svgrepo-com 1" clip-path="url(#clip0_33_24)">
<g id="Group">
<g id="Group_2">
<path id="Vector" d="M36.3958 11.4207L40.676 0L47.006 8.53182L56.3616 4.94268L57.7509 16.2491L50.3133 23.6866L36.3958 11.4207Z" fill="#9AC676"/>
<path id="Vector_2" d="M62.5792 37.6041L73.9999 33.325L65.4681 26.994L69.0573 17.6393L57.7509 16.2491L50.3133 23.6866L62.5792 37.6041Z" fill="#85B932"/>
</g>
<g id="Group_3">
<path id="Vector_3" d="M50.5175 23.4824C50.5175 23.4824 50.7504 23.7151 48.6853 21.6511C46.1455 19.1114 42.9025 15.8672 41.0507 14.0155C37.6923 10.6551 24.179 5.84715 12.499 17.527C0.819022 29.2092 -0.416142 49.1412 0.0933305 56.1949C0.628241 63.5998 4.06317 67.4931 5.28504 68.7159L50.5175 23.4824Z" fill="#EA5756"/>
<path id="Vector_4" d="M50.5175 23.4824C50.5175 23.4824 50.2848 23.2496 52.3499 25.3158C54.8886 27.8535 58.1316 31.0975 59.9845 32.9492C63.3429 36.3077 68.1528 49.8209 56.4719 61.5009C44.7919 73.1809 24.8569 74.416 17.8052 73.9056C10.4003 73.3707 6.50702 69.9368 5.28516 68.7159L50.5175 23.4824Z" fill="#E8413E"/>
</g>
<g id="Group_4" opacity="0.75">
<path id="Vector_5" d="M23.9369 26.1774C22.2291 27.8841 20.0753 28.5007 19.1269 27.5513C18.1785 26.604 18.794 24.4501 20.5018 22.7433C22.2086 21.0345 24.3625 20.4201 25.3108 21.3694C26.2592 22.3166 25.6437 24.4706 23.9369 26.1774Z" fill="#B31E24"/>
<path id="Vector_6" d="M18.44 43.3553C16.7324 45.0621 14.5794 45.6787 13.6312 44.7292C12.6827 43.78 13.2973 41.626 15.0051 39.9194C16.7129 38.2126 18.8658 37.5961 19.8141 38.5453C20.7633 39.4946 20.1478 41.6486 18.44 43.3553Z" fill="#B31E24"/>
<path id="Vector_7" d="M37.6779 39.9194C35.9702 41.6262 33.8174 42.2426 32.8691 41.2933C31.9197 40.344 32.5352 38.1921 34.243 36.4833C35.9508 34.7765 38.1037 34.16 39.053 35.1092C40.0013 36.0587 39.3857 38.2126 37.6779 39.9194Z" fill="#B31E24"/>
<path id="Vector_8" d="M50.0459 52.2872C48.3391 53.994 46.1862 54.6106 45.2369 53.6613C44.2876 52.712 44.9031 50.5601 46.61 48.8513C48.3176 47.1445 50.4705 46.5279 51.4198 47.4794C52.3692 48.4266 51.7537 50.5804 50.0459 52.2872Z" fill="#B31E24"/>
<path id="Vector_9" d="M33.556 59.1592C31.8482 60.866 29.6952 61.4806 28.746 60.5333C27.7977 59.584 28.4133 57.4301 30.12 55.7233C31.8278 54.0165 33.9806 53.4001 34.9299 54.3494C35.8793 55.2987 35.2639 57.4525 33.556 59.1592Z" fill="#B31E24"/>
<path id="Vector_10" d="M16.3779 61.2192C14.6712 62.926 12.5182 63.5426 11.5689 62.5933C10.6215 61.6459 11.2361 59.4921 12.9439 57.7833C14.6506 56.0765 16.8046 55.462 17.7529 56.4094C18.7013 57.3587 18.0869 59.5125 16.3779 61.2192Z" fill="#B31E24"/>
</g>
</g>
</g>
<defs>
<clipPath id="clip0_33_24">
<rect width="74" height="74" fill="white"/>
</clipPath>
</defs>
</svg>
